<svg aria-hidden="true" style="position: absolute; width: 0; height: 0; overflow: hidden;" version="1.1" xmlns="http://www.w3.org/2000/svg" xmlns:xlink="http://www.w3.org/1999/xlink">
<defs>
<symbol id="icon-alcove" viewBox="0 0 32 32">
<path d="M6.857 2.286v4.571h-4.571v-4.571h4.571zM9.143 29.714v-4.571c0-0.606-0.241-1.188-0.669-1.616s-1.010-0.669-1.616-0.669h-4.571c-0.606 0-1.188 0.241-1.616 0.669s-0.669 1.010-0.669 1.616v4.571c0 0.606 0.241 1.188 0.669 1.616s1.010 0.669 1.616 0.669h4.571c0.606 0 1.188-0.241 1.616-0.669s0.669-1.010 0.669-1.616zM9.143 18.286v-4.571c0-0.606-0.241-1.188-0.669-1.616s-1.010-0.669-1.616-0.669h-4.571c-0.606 0-1.188 0.241-1.616 0.669s-0.669 1.010-0.669 1.616v4.571c0 0.606 0.241 1.188 0.669 1.616s1.010 0.669 1.616 0.669h4.571c0.606 0 1.188-0.241 1.616-0.669s0.669-1.010 0.669-1.616zM9.143 6.857v-4.571c0-0.606-0.241-1.188-0.669-1.616s-1.010-0.669-1.616-0.669h-4.571c-0.606 0-1.188 0.241-1.616 0.669s-0.669 1.010-0.669 1.616v4.571c0 0.606 0.241 1.188 0.669 1.616s1.010 0.669 1.616 0.669h4.571c0.606 0 1.188-0.241 1.616-0.669s0.669-1.010 0.669-1.616zM20.571 29.714v-4.571c0-0.606-0.241-1.188-0.669-1.616s-1.010-0.669-1.616-0.669h-4.571c-0.606 0-1.188 0.241-1.616 0.669s-0.669 1.010-0.669 1.616v4.571c0 0.606 0.241 1.188 0.669 1.616s1.010 0.669 1.616 0.669h4.571c0.606 0 1.188-0.241 1.616-0.669s0.669-1.010 0.669-1.616zM20.571 18.286v-4.571c0-0.606-0.241-1.188-0.669-1.616s-1.010-0.669-1.616-0.669h-4.571c-0.606 0-1.188 0.241-1.616 0.669s-0.669 1.010-0.669 1.616v4.571c0 0.606 0.241 1.188 0.669 1.616s1.010 0.669 1.616 0.669h4.571c0.606 0 1.188-0.241 1.616-0.669s0.669-1.010 0.669-1.616zM20.571 6.857v-4.571c0-0.606-0.241-1.188-0.669-1.616s-1.010-0.669-1.616-0.669h-4.571c-0.606 0-1.188 0.241-1.616 0.669s-0.669 1.010-0.669 1.616v4.571c0 0.606 0.241 1.188 0.669 1.616s1.010 0.669 1.616 0.669h4.571c0.606 0 1.188-0.241 1.616-0.669s0.669-1.010 0.669-1.616zM18.286 2.286v4.571h-4.571v-4.571h4.571zM29.714 2.286v4.571h-4.571v-4.571h4.571zM6.857 13.714v4.571h-4.571v-4.571h4.571zM18.286 13.714v4.571h-4.571v-4.571h4.571zM29.714 13.714h-4.571v4.571h4.571v-4.571zM6.857 25.143v4.571h-4.571v-4.571h4.571zM18.286 25.143v4.571h-4.571v-4.571h4.571zM29.714 25.143v4.571h-4.571v-4.571h4.571zM25.143 0c-0.606 0-1.188 0.241-1.616 0.669s-0.669 1.010-0.669 1.616v4.571c0 0.606 0.241 1.188 0.669 1.616s1.010 0.669 1.616 0.669h4.571c0.606 0 1.188-0.241 1.616-0.669s0.669-1.010 0.669-1.616v-4.571c0-0.606-0.241-1.188-0.669-1.616s-1.010-0.669-1.616-0.669h-4.571zM22.857 13.714c0-0.606 0.241-1.188 0.669-1.616s1.010-0.669 1.616-0.669h4.571c0.606 0 1.188 0.241 1.616 0.669s0.669 1.010 0.669 1.616v4.571c0 0.606-0.241 1.188-0.669 1.616s-1.010 0.669-1.616 0.669h-4.571c-0.606 0-1.188-0.241-1.616-0.669s-0.669-1.010-0.669-1.616v-4.571zM25.143 22.857c-0.606 0-1.188 0.241-1.616 0.669s-0.669 1.010-0.669 1.616v4.571c0 0.606 0.241 1.188 0.669 1.616s1.010 0.669 1.616 0.669h4.571c0.606 0 1.188-0.241 1.616-0.669s0.669-1.010 0.669-1.616v-4.571c0-0.606-0.241-1.188-0.669-1.616s-1.010-0.669-1.616-0.669h-4.571z"></path>
</symbol>
<symbol id="icon-fullyIntegrated" viewBox="0 0 32 32">
<path d="M0 3.429c0-0.909 0.361-1.781 1.004-2.424s1.515-1.004 2.424-1.004h6.857c0.909 0 1.781 0.361 2.424 1.004s1.004 1.515 1.004 2.424v6.857c0 0.909-0.361 1.781-1.004 2.424s-1.515 1.004-2.424 1.004h-6.857c-0.909 0-1.781-0.361-2.424-1.004s-1.004-1.515-1.004-2.424v-6.857zM3.429 2.286c-0.303 0-0.594 0.12-0.808 0.335s-0.335 0.505-0.335 0.808v6.857c0 0.303 0.12 0.594 0.335 0.808s0.505 0.335 0.808 0.335h6.857c0.303 0 0.594-0.12 0.808-0.335s0.335-0.505 0.335-0.808v-6.857c0-0.303-0.12-0.594-0.335-0.808s-0.505-0.335-0.808-0.335h-6.857zM18.286 3.429c0-0.909 0.361-1.781 1.004-2.424s1.515-1.004 2.424-1.004h6.857c0.909 0 1.781 0.361 2.424 1.004s1.004 1.515 1.004 2.424v6.857c0 0.909-0.361 1.781-1.004 2.424s-1.515 1.004-2.424 1.004h-6.857c-0.909 0-1.781-0.361-2.424-1.004s-1.004-1.515-1.004-2.424v-6.857zM21.714 2.286c-0.303 0-0.594 0.12-0.808 0.335s-0.335 0.505-0.335 0.808v6.857c0 0.303 0.12 0.594 0.335 0.808s0.505 0.335 0.808 0.335h6.857c0.303 0 0.594-0.12 0.808-0.335s0.335-0.505 0.335-0.808v-6.857c0-0.303-0.12-0.594-0.335-0.808s-0.505-0.335-0.808-0.335h-6.857zM0 21.714c0-0.909 0.361-1.781 1.004-2.424s1.515-1.004 2.424-1.004h6.857c0.909 0 1.781 0.361 2.424 1.004s1.004 1.515 1.004 2.424v6.857c0 0.909-0.361 1.781-1.004 2.424s-1.515 1.004-2.424 1.004h-6.857c-0.909 0-1.781-0.361-2.424-1.004s-1.004-1.515-1.004-2.424v-6.857zM3.429 20.571c-0.303 0-0.594 0.12-0.808 0.335s-0.335 0.505-0.335 0.808v6.857c0 0.303 0.12 0.594 0.335 0.808s0.505 0.335 0.808 0.335h6.857c0.303 0 0.594-0.12 0.808-0.335s0.335-0.505 0.335-0.808v-6.857c0-0.303-0.12-0.594-0.335-0.808s-0.505-0.335-0.808-0.335h-6.857zM18.286 21.714c0-0.909 0.361-1.781 1.004-2.424s1.515-1.004 2.424-1.004h6.857c0.909 0 1.781 0.361 2.424 1.004s1.004 1.515 1.004 2.424v6.857c0 0.909-0.361 1.781-1.004 2.424s-1.515 1.004-2.424 1.004h-6.857c-0.909 0-1.781-0.361-2.424-1.004s-1.004-1.515-1.004-2.424v-6.857zM21.714 20.571c-0.303 0-0.594 0.12-0.808 0.335s-0.335 0.505-0.335 0.808v6.857c0 0.303 0.12 0.594 0.335 0.808s0.505 0.335 0.808 0.335h6.857c0.303 0 0.594-0.12 0.808-0.335s0.335-0.505 0.335-0.808v-6.857c0-0.303-0.12-0.594-0.335-0.808s-0.505-0.335-0.808-0.335h-6.857z"></path>
</symbol>
<symbol id="icon-van" viewBox="0 0 32 32">
<path d="M12 2h-10v28h10v-28zM30 2h-10v10h10v-10zM30 20v10h-10v-10h10zM0 2c0-0.53 0.211-1.039 0.586-1.414s0.884-0.586 1.414-0.586h10c0.53 0 1.039 0.211 1.414 0.586s0.586 0.884 0.586 1.414v28c0 0.53-0.211 1.039-0.586 1.414s-0.884 0.586-1.414 0.586h-10c-0.53 0-1.039-0.211-1.414-0.586s-0.586-0.884-0.586-1.414v-28zM18 2c0-0.53 0.211-1.039 0.586-1.414s0.884-0.586 1.414-0.586h10c0.53 0 1.039 0.211 1.414 0.586s0.586 0.884 0.586 1.414v10c0 0.53-0.211 1.039-0.586 1.414s-0.884 0.586-1.414 0.586h-10c-0.53 0-1.039-0.211-1.414-0.586s-0.586-0.884-0.586-1.414v-10zM20 18c-0.53 0-1.039 0.211-1.414 0.586s-0.586 0.884-0.586 1.414v10c0 0.53 0.211 1.039 0.586 1.414s0.884 0.586 1.414 0.586h10c0.53 0 1.039-0.211 1.414-0.586s0.586-0.884 0.586-1.414v-10c0-0.53-0.211-1.039-0.586-1.414s-0.884-0.586-1.414-0.586h-10z"></path>
</symbol>
<symbol id="icon-tv" viewBox="0 0 41 32">
<path d="M0 5.12c0 0 0-5.12 5.12-5.12h30.72c0 0 5.12 0 5.12 5.12v15.36c0 0 0 5.12-5.12 5.12h-10.24c0 1.707 0.213 2.987 0.64 3.84h1.92c0.339 0 0.665 0.135 0.905 0.375s0.375 0.566 0.375 0.905c0 0.339-0.135 0.665-0.375 0.905s-0.566 0.375-0.905 0.375h-15.36c-0.339 0-0.665-0.135-0.905-0.375s-0.375-0.566-0.375-0.905c0-0.339 0.135-0.665 0.375-0.905s0.566-0.375 0.905-0.375h1.92c0.427-0.853 0.64-2.133 0.64-3.84h-10.24c0 0-5.12 0-5.12-5.12v-15.36zM3.579 2.931c-0.281 0.196-0.505 0.463-0.65 0.773-0.216 0.452-0.341 0.941-0.369 1.441v15.334c0 0.832 0.2 1.285 0.371 1.541 0.179 0.266 0.437 0.483 0.773 0.65 0.432 0.207 0.899 0.331 1.377 0.366l0.064 0.003h30.694c0.832 0 1.285-0.2 1.541-0.371 0.281-0.196 0.505-0.463 0.65-0.773 0.207-0.432 0.331-0.899 0.366-1.377l0.003-0.064v-15.334c0-0.832-0.2-1.285-0.371-1.541-0.196-0.281-0.463-0.505-0.773-0.65-0.452-0.216-0.941-0.341-1.441-0.369h-30.694c-0.832 0-1.285 0.2-1.541 0.371z"></path>
</symbol>
<symbol id="icon-gas" viewBox="0 0 32 32">
<path d="M6 5c0-0.265 0.105-0.52 0.293-0.707s0.442-0.293 0.707-0.293h10c0.265 0 0.52 0.105 0.707 0.293s0.293 0.442 0.293 0.707v10c0 0.265-0.105 0.52-0.293 0.707s-0.442 0.293-0.707 0.293h-10c-0.265 0-0.52-0.105-0.707-0.293s-0.293-0.442-0.293-0.707v-10z"></path>
<path d="M2 4c0-1.061 0.421-2.078 1.172-2.828s1.768-1.172 2.828-1.172h12c1.061 0 2.078 0.421 2.828 1.172s1.172 1.768 1.172 2.828v16c1.061 0 2.078 0.421 2.828 1.172s1.172 1.768 1.172 2.828v1c0 0.265 0.105 0.52 0.293 0.707s0.442 0.293 0.707 0.293 0.52-0.105 0.707-0.293c0.188-0.188 0.293-0.442 0.293-0.707v-9h-1c-0.265 0-0.52-0.105-0.707-0.293s-0.293-0.442-0.293-0.707v-6.25c0-0.265 0.105-0.52 0.293-0.707s0.442-0.293 0.707-0.293h2.99c-0.022-0.952-0.106-1.788-0.402-2.444-0.158-0.381-0.435-0.702-0.788-0.916-0.368-0.22-0.928-0.39-1.8-0.39-0.265 0-0.52-0.105-0.707-0.293s-0.293-0.442-0.293-0.707 0.105-0.52 0.293-0.707c0.188-0.188 0.442-0.293 0.707-0.293 1.128-0.003 2.069 0.221 2.824 0.672 0.766 0.456 1.268 1.102 1.588 1.814 0.59 1.31 0.588 2.93 0.588 4.162v6.35c0 0.132-0.025 0.262-0.076 0.383s-0.124 0.232-0.217 0.325c-0.093 0.093-0.203 0.167-0.325 0.217s-0.252 0.076-0.383 0.076h-1v9c0 0.796-0.316 1.559-0.879 2.121s-1.326 0.879-2.121 0.879-1.559-0.316-2.121-0.879c-0.563-0.563-0.879-1.326-0.879-2.121v-1c0-0.53-0.211-1.039-0.586-1.414s-0.884-0.586-1.414-0.586v8h1c0.265 0 0.52 0.105 0.707 0.293s0.293 0.442 0.293 0.707-0.105 0.52-0.293 0.707c-0.188 0.188-0.442 0.293-0.707 0.293h-22c-0.265 0-0.52-0.105-0.707-0.293s-0.293-0.442-0.293-0.707 0.105-0.52 0.293-0.707c0.188-0.188 0.442-0.293 0.707-0.293h1v-26zM20 4c0-0.53-0.211-1.039-0.586-1.414s-0.884-0.586-1.414-0.586h-12c-0.53 0-1.039 0.211-1.414 0.586s-0.586 0.884-0.586 1.414v26h16v-26z"></path>
</symbol>
</defs>
</svg>
